<svg width="1000" height="1090" viewBox="0 0 1000 1090" fill="none"
    xmlns="http://www.w3.org/2000/svg">
    <path
        d="M814.613 454.285C836.127 414.405 851.133 364.386 851.133 302.135C851.133 216.735 813.843 139.432 746.116 84.452C679.291 30.2014 588.882 1.53197 484.662 1.53197L125.521 0C56.2004 0 0 51.4542 0 114.921V1089.46H628.27C862.872 1089.46 1000 910.296 1000 748.687C1000 625.912 925.527 513.569 814.613 454.285ZM484.635 85.5705C653.236 85.5705 759.342 178.096 759.342 302.135C759.342 468.608 622.321 544.743 483.679 544.743C353.43 544.743 246.155 446.528 246.155 294.305V210.267C246.155 155.092 210.114 105.559 154.339 89.2423V85.5705H484.635Z"
        fill="#FFB999" />
</svg>