<svg width="24" height="27" viewBox="0 0 24 27" fill="none" xmlns="http://www.w3.org/2000/svg">
<path d="M19.5507 11.2585C20.067 10.2702 20.4272 9.03053 20.4272 7.48778C20.4272 5.37132 19.5322 3.45553 17.9068 2.09296C16.303 0.748477 14.1332 0.0379665 11.6319 0.0379665L3.01251 0C1.34881 0 0 1.27518 0 2.84807V27H15.0785C20.7089 27 24 22.5598 24 18.5546C24 15.5119 22.2126 12.7277 19.5507 11.2585ZM11.6312 2.12068C15.6777 2.12068 18.2242 4.41372 18.2242 7.48778C18.2242 11.6134 14.9357 13.5003 11.6083 13.5003C8.48232 13.5003 5.90773 11.0662 5.90773 7.29373V5.21101C5.90773 3.84363 5.04273 2.61605 3.70412 2.21168V2.12068H11.6312Z" fill="#FFDCCC"/>
</svg>
