<svg width="1001" height="1000" viewBox="0 0 1001 1000" fill="none" xmlns="http://www.w3.org/2000/svg">
<circle cx="500.999" cy="500" r="500" fill="#F7931A"/>
<path d="M397.541 719.069L578.527 290.243L605.999 301.837L425.013 730.663L397.541 719.069ZM608.326 459.514C613.232 442.902 611.046 427.507 601.768 413.329C592.537 399.04 578.095 387.748 558.44 379.452C544.369 373.514 531.254 370.61 519.095 370.741C506.983 370.76 496.453 373.42 487.506 378.722C478.717 383.959 472.273 391.436 468.172 401.151C464.731 409.303 463.661 417.14 464.96 424.661C466.37 432.23 469.354 439.344 473.911 446.003C478.627 452.598 484.048 458.768 490.176 464.511C496.351 470.143 502.435 475.211 508.428 479.714L538.254 502.564C548.067 509.863 557.758 518.229 567.328 527.662C576.898 537.096 585.018 547.627 591.687 559.257C598.357 570.886 602.374 583.502 603.738 597.103C605.214 610.75 602.7 625.28 596.196 640.691C587.995 660.122 575.688 675.255 559.274 686.089C542.973 696.97 523.491 702.76 500.831 703.458C478.281 704.203 453.606 698.92 426.804 687.608C401.119 676.768 380.617 663.313 365.296 647.242C349.976 631.172 340.169 613.416 335.875 593.974C331.629 574.421 333.307 554.079 340.91 532.948L392.838 554.864C388.612 567.684 388.272 579.71 391.82 590.944C395.526 602.112 402.059 612.04 411.418 620.726C420.936 629.348 432.339 636.463 445.628 642.072C460.258 648.246 474.234 651.447 487.557 651.676C501.039 651.84 512.818 649.181 522.895 643.698C533.018 638.103 540.437 629.722 545.15 618.555C549.439 608.393 550.047 598.847 546.973 589.92C544.011 581.039 538.512 572.403 530.476 564.012C522.552 555.668 513.131 547.284 502.213 538.861L466.342 510.696C442.028 491.62 424.894 471.429 414.94 450.125C405.098 428.867 405.22 406.29 415.306 382.392C423.649 362.625 436.291 347.634 453.233 337.418C470.175 327.202 489.524 321.882 511.279 321.46C533.081 320.925 555.484 325.513 578.489 335.222C601.717 345.025 620.489 357.75 634.804 373.396C649.232 389.089 658.566 406.251 662.807 424.882C667.095 443.4 665.574 461.967 658.244 480.582L608.326 459.514Z" fill="white"/>
</svg>
